<mxfile host="app.diagrams.net" agent="Mozilla/5.0 (Windows NT 10.0; Win64; x64) AppleWebKit/537.36 (KHTML, like Gecko) Chrome/131.0.0.0 Safari/537.36" version="26.0.2">
  <diagram name="Страница — 1" id="knhKjqAvOvUyFYcebiVR">
    <mxGraphModel dx="989" dy="538" grid="1" gridSize="10" guides="1" tooltips="1" connect="1" arrows="1" fold="1" page="1" pageScale="1" pageWidth="827" pageHeight="1169" math="0" shadow="0">
      <root>
        <mxCell id="0" />
        <mxCell id="1" parent="0" />
        <mxCell id="oj63fRnpGY89MBhKvZT7-1" value="&lt;div style=&quot;text-align: justify;&quot;&gt;&lt;i&gt;&lt;font style=&quot;font-size: 7px;&quot;&gt;&lt;span style=&quot;background-color: transparent; color: light-dark(rgb(0, 0, 0), rgb(255, 255, 255));&quot;&gt;Эргономические требования к СЧМ&amp;nbsp;&lt;/span&gt;&lt;span style=&quot;color: rgb(31, 31, 31); font-family: &amp;quot;Google Sans&amp;quot;, Arial, sans-serif; background-color: rgb(255, 255, 255);&quot;&gt;–&amp;nbsp;&amp;nbsp;повышают эффективность деятельности и обеспечивают сохранение здоровья оператора&lt;/span&gt;&lt;/font&gt;&lt;/i&gt;&lt;/div&gt;" style="rounded=0;whiteSpace=wrap;html=1;align=left;" vertex="1" parent="1">
          <mxGeometry x="30" y="100" width="290" height="30" as="geometry" />
        </mxCell>
        <mxCell id="oj63fRnpGY89MBhKvZT7-5" value="&lt;div style=&quot;text-align: justify;&quot;&gt;&lt;span style=&quot;font-size: 7px; font-style: italic;&quot;&gt;1.Требования к организации СЧМ&lt;/span&gt;&lt;/div&gt;" style="rounded=0;whiteSpace=wrap;html=1;align=left;" vertex="1" parent="1">
          <mxGeometry x="30" y="150" width="120" height="30" as="geometry" />
        </mxCell>
        <mxCell id="oj63fRnpGY89MBhKvZT7-6" style="edgeStyle=orthogonalEdgeStyle;rounded=0;orthogonalLoop=1;jettySize=auto;html=1;endArrow=none;endFill=0;strokeWidth=1;exitX=0.5;exitY=0;exitDx=0;exitDy=0;entryX=0.19;entryY=0.998;entryDx=0;entryDy=0;entryPerimeter=0;" edge="1" parent="1" source="oj63fRnpGY89MBhKvZT7-5" target="oj63fRnpGY89MBhKvZT7-1">
          <mxGeometry relative="1" as="geometry">
            <mxPoint x="330" y="125" as="sourcePoint" />
            <mxPoint x="80" y="140" as="targetPoint" />
            <Array as="points" />
          </mxGeometry>
        </mxCell>
        <mxCell id="oj63fRnpGY89MBhKvZT7-45" style="edgeStyle=orthogonalEdgeStyle;rounded=0;orthogonalLoop=1;jettySize=auto;html=1;exitX=0;exitY=0.25;exitDx=0;exitDy=0;entryX=0;entryY=0.5;entryDx=0;entryDy=0;endArrow=none;endFill=0;" edge="1" parent="1" source="oj63fRnpGY89MBhKvZT7-7" target="oj63fRnpGY89MBhKvZT7-1">
          <mxGeometry relative="1" as="geometry">
            <Array as="points">
              <mxPoint x="20" y="367" />
              <mxPoint x="20" y="115" />
            </Array>
          </mxGeometry>
        </mxCell>
        <mxCell id="oj63fRnpGY89MBhKvZT7-7" value="&lt;div style=&quot;text-align: justify;&quot;&gt;&lt;span style=&quot;font-size: 7px; font-style: italic;&quot;&gt;2.Требования к организации деятельности оператора&lt;/span&gt;&lt;/div&gt;" style="rounded=0;whiteSpace=wrap;html=1;align=left;" vertex="1" parent="1">
          <mxGeometry x="30" y="360" width="140" height="30" as="geometry" />
        </mxCell>
        <mxCell id="oj63fRnpGY89MBhKvZT7-9" value="&lt;div style=&quot;text-align: justify;&quot;&gt;&lt;span style=&quot;font-size: 7px; font-style: italic;&quot;&gt;3.Требования к техническим средствам деятельности оператора&lt;/span&gt;&lt;/div&gt;" style="rounded=0;whiteSpace=wrap;html=1;align=left;" vertex="1" parent="1">
          <mxGeometry x="210" y="200" width="140" height="30" as="geometry" />
        </mxCell>
        <mxCell id="oj63fRnpGY89MBhKvZT7-11" value="&lt;div style=&quot;text-align: justify;&quot;&gt;&lt;span style=&quot;font-size: 7px; font-style: italic;&quot;&gt;4.Требования к формированию и поддержанию работоспособности операторов&lt;/span&gt;&lt;/div&gt;" style="rounded=0;whiteSpace=wrap;html=1;align=left;" vertex="1" parent="1">
          <mxGeometry x="454" y="140" width="160" height="30" as="geometry" />
        </mxCell>
        <mxCell id="oj63fRnpGY89MBhKvZT7-42" style="edgeStyle=orthogonalEdgeStyle;rounded=0;orthogonalLoop=1;jettySize=auto;html=1;exitX=0.5;exitY=1;exitDx=0;exitDy=0;entryX=0.5;entryY=0;entryDx=0;entryDy=0;endArrow=none;endFill=0;" edge="1" parent="1" source="oj63fRnpGY89MBhKvZT7-13" target="oj63fRnpGY89MBhKvZT7-40">
          <mxGeometry relative="1" as="geometry" />
        </mxCell>
        <mxCell id="oj63fRnpGY89MBhKvZT7-13" value="&lt;div style=&quot;text-align: justify;&quot;&gt;&lt;span style=&quot;font-size: 7px; font-style: italic;&quot;&gt;5.Требования к обитаемым помещениям&amp;nbsp;&lt;/span&gt;&lt;/div&gt;" style="rounded=0;whiteSpace=wrap;html=1;align=left;" vertex="1" parent="1">
          <mxGeometry x="454" y="350" width="100" height="30" as="geometry" />
        </mxCell>
        <mxCell id="oj63fRnpGY89MBhKvZT7-49" style="edgeStyle=orthogonalEdgeStyle;rounded=0;orthogonalLoop=1;jettySize=auto;html=1;exitX=1;exitY=0.5;exitDx=0;exitDy=0;entryX=0.545;entryY=0.987;entryDx=0;entryDy=0;entryPerimeter=0;endArrow=none;endFill=0;" edge="1" parent="1" source="oj63fRnpGY89MBhKvZT7-15" target="oj63fRnpGY89MBhKvZT7-1">
          <mxGeometry relative="1" as="geometry" />
        </mxCell>
        <mxCell id="oj63fRnpGY89MBhKvZT7-15" value="&lt;div style=&quot;text-align: justify;&quot;&gt;&lt;span style=&quot;font-size: 7px; font-style: italic;&quot;&gt;6.Требования к факторам внешней среды&lt;/span&gt;&lt;/div&gt;" style="rounded=0;whiteSpace=wrap;html=1;align=left;" vertex="1" parent="1">
          <mxGeometry x="30" y="480" width="110" height="30" as="geometry" />
        </mxCell>
        <mxCell id="oj63fRnpGY89MBhKvZT7-17" value="&lt;div style=&quot;text-align: justify;&quot;&gt;&lt;span style=&quot;font-size: 7px;&quot;&gt;&lt;i&gt;Распределению функций между оператором (операторами) и техническими средствами&lt;/i&gt;&lt;/span&gt;&lt;/div&gt;" style="rounded=0;whiteSpace=wrap;html=1;align=left;" vertex="1" parent="1">
          <mxGeometry x="50" y="190" width="120" height="50" as="geometry" />
        </mxCell>
        <mxCell id="oj63fRnpGY89MBhKvZT7-19" value="&lt;div style=&quot;text-align: justify;&quot;&gt;&lt;span style=&quot;font-size: 7px;&quot;&gt;&lt;i&gt;Квалификация операторов&lt;/i&gt;&lt;/span&gt;&lt;/div&gt;" style="rounded=0;whiteSpace=wrap;html=1;align=left;" vertex="1" parent="1">
          <mxGeometry x="50" y="250" width="120" height="30" as="geometry" />
        </mxCell>
        <mxCell id="oj63fRnpGY89MBhKvZT7-21" value="&lt;div style=&quot;text-align: justify;&quot;&gt;&lt;div&gt;&lt;i&gt;&lt;font style=&quot;font-size: 7px;&quot;&gt;Численности операторов и распределению функций&lt;/font&gt;&lt;/i&gt;&lt;/div&gt;&lt;div&gt;&lt;i&gt;&lt;font style=&quot;font-size: 7px;&quot;&gt;между ними&lt;/font&gt;&lt;/i&gt;&lt;/div&gt;&lt;/div&gt;" style="rounded=0;whiteSpace=wrap;html=1;align=left;" vertex="1" parent="1">
          <mxGeometry x="50" y="290" width="120" height="50" as="geometry" />
        </mxCell>
        <mxCell id="oj63fRnpGY89MBhKvZT7-22" style="edgeStyle=orthogonalEdgeStyle;rounded=0;orthogonalLoop=1;jettySize=auto;html=1;endArrow=none;endFill=0;strokeWidth=1;exitX=0;exitY=0.5;exitDx=0;exitDy=0;entryX=0.083;entryY=0.987;entryDx=0;entryDy=0;entryPerimeter=0;" edge="1" parent="1" source="oj63fRnpGY89MBhKvZT7-17" target="oj63fRnpGY89MBhKvZT7-5">
          <mxGeometry relative="1" as="geometry">
            <mxPoint x="100" y="160" as="sourcePoint" />
            <mxPoint x="95" y="140" as="targetPoint" />
            <Array as="points" />
          </mxGeometry>
        </mxCell>
        <mxCell id="oj63fRnpGY89MBhKvZT7-23" style="edgeStyle=orthogonalEdgeStyle;rounded=0;orthogonalLoop=1;jettySize=auto;html=1;endArrow=none;endFill=0;strokeWidth=1;exitX=0;exitY=0.5;exitDx=0;exitDy=0;entryX=0.043;entryY=1.013;entryDx=0;entryDy=0;entryPerimeter=0;" edge="1" parent="1" source="oj63fRnpGY89MBhKvZT7-19" target="oj63fRnpGY89MBhKvZT7-5">
          <mxGeometry relative="1" as="geometry">
            <mxPoint x="60" y="225" as="sourcePoint" />
            <mxPoint x="50" y="190" as="targetPoint" />
            <Array as="points">
              <mxPoint x="35" y="265" />
            </Array>
          </mxGeometry>
        </mxCell>
        <mxCell id="oj63fRnpGY89MBhKvZT7-24" style="edgeStyle=orthogonalEdgeStyle;rounded=0;orthogonalLoop=1;jettySize=auto;html=1;endArrow=none;endFill=0;strokeWidth=1;exitX=0;exitY=0.5;exitDx=0;exitDy=0;entryX=0;entryY=1;entryDx=0;entryDy=0;" edge="1" parent="1" source="oj63fRnpGY89MBhKvZT7-21" target="oj63fRnpGY89MBhKvZT7-5">
          <mxGeometry relative="1" as="geometry">
            <mxPoint x="60" y="275" as="sourcePoint" />
            <mxPoint x="45" y="190" as="targetPoint" />
            <Array as="points">
              <mxPoint x="30" y="315" />
            </Array>
          </mxGeometry>
        </mxCell>
        <mxCell id="oj63fRnpGY89MBhKvZT7-26" value="&lt;div style=&quot;text-align: justify;&quot;&gt;&lt;span style=&quot;font-size: 7px;&quot;&gt;&lt;i&gt;а)&amp;nbsp;&lt;/i&gt;&lt;/span&gt;&lt;span style=&quot;background-color: transparent; text-align: left; font-size: 7px;&quot;&gt;&lt;i&gt;Алгоритму деятельности оператора (операторов)&lt;/i&gt;&lt;/span&gt;&lt;/div&gt;&lt;div style=&quot;text-align: justify;&quot;&gt;&lt;span style=&quot;font-size: 7px;&quot;&gt;&lt;i&gt;b)&amp;nbsp;&lt;/i&gt;&lt;/span&gt;&lt;span style=&quot;background-color: transparent; text-align: left; font-size: 7px;&quot;&gt;&lt;i&gt;Информационным моделям&lt;/i&gt;&lt;/span&gt;&lt;/div&gt;&lt;div style=&quot;text-align: justify;&quot;&gt;&lt;span style=&quot;font-size: 7px;&quot;&gt;&lt;i&gt;c)&amp;nbsp;&lt;/i&gt;&lt;/span&gt;&lt;span style=&quot;background-color: transparent; text-align: left; font-size: 7px;&quot;&gt;&lt;i&gt;Эксплутационной документации&lt;/i&gt;&lt;/span&gt;&lt;/div&gt;" style="rounded=0;whiteSpace=wrap;html=1;align=left;" vertex="1" parent="1">
          <mxGeometry x="30" y="400" width="140" height="60" as="geometry" />
        </mxCell>
        <mxCell id="oj63fRnpGY89MBhKvZT7-28" style="edgeStyle=orthogonalEdgeStyle;rounded=0;orthogonalLoop=1;jettySize=auto;html=1;endArrow=none;endFill=0;strokeWidth=1;exitX=0;exitY=0.5;exitDx=0;exitDy=0;entryX=0;entryY=1;entryDx=0;entryDy=0;" edge="1" parent="1" source="oj63fRnpGY89MBhKvZT7-26" target="oj63fRnpGY89MBhKvZT7-7">
          <mxGeometry relative="1" as="geometry">
            <mxPoint x="60" y="315" as="sourcePoint" />
            <mxPoint x="29" y="395" as="targetPoint" />
            <Array as="points">
              <mxPoint x="20" y="430" />
              <mxPoint x="20" y="380" />
              <mxPoint x="30" y="380" />
            </Array>
          </mxGeometry>
        </mxCell>
        <mxCell id="oj63fRnpGY89MBhKvZT7-31" value="&lt;div style=&quot;text-align: justify;&quot;&gt;&lt;div&gt;&lt;font style=&quot;font-size: 7px;&quot;&gt;&lt;i&gt;a) Конструкции и компоновке рабочего места оператора;&lt;/i&gt;&lt;/font&gt;&lt;/div&gt;&lt;div&gt;&lt;font style=&quot;font-size: 7px;&quot;&gt;&lt;i&gt;b) Взаимному расположению рабочих мест и средств&lt;/i&gt;&lt;/font&gt;&lt;/div&gt;&lt;div&gt;&lt;font style=&quot;font-size: 7px;&quot;&gt;&lt;i&gt;отображения информации коллективного пользования;&lt;/i&gt;&lt;/font&gt;&lt;/div&gt;&lt;div&gt;&lt;font style=&quot;font-size: 7px;&quot;&gt;&lt;i&gt;c) Форме, расположению, размерам приборных панелей и&lt;/i&gt;&lt;/font&gt;&lt;/div&gt;&lt;div&gt;&lt;font style=&quot;font-size: 7px;&quot;&gt;&lt;i&gt;пультов управления;&lt;/i&gt;&lt;/font&gt;&lt;/div&gt;&lt;div&gt;&lt;font style=&quot;font-size: 7px;&quot;&gt;&lt;i&gt;d) Обзорности приборных панелей и пультов управления;&lt;/i&gt;&lt;/font&gt;&lt;/div&gt;&lt;div&gt;&lt;font style=&quot;font-size: 7px;&quot;&gt;&lt;i&gt;e) Досягаемости органов управления;&lt;/i&gt;&lt;/font&gt;&lt;/div&gt;&lt;div&gt;&lt;font style=&quot;font-size: 7px;&quot;&gt;&lt;i&gt;f) Размещению и группированию элементов приборных&lt;/i&gt;&lt;/font&gt;&lt;/div&gt;&lt;div&gt;&lt;font style=&quot;font-size: 7px;&quot;&gt;&lt;i&gt;панелей и пультов управления;&lt;/i&gt;&lt;/font&gt;&lt;/div&gt;&lt;div&gt;&lt;font style=&quot;font-size: 7px;&quot;&gt;&lt;i&gt;g) Средствам отображения информации (визуальной,&lt;/i&gt;&lt;/font&gt;&lt;/div&gt;&lt;div&gt;&lt;font style=&quot;font-size: 7px;&quot;&gt;&lt;i&gt;акустической, тактильной);&lt;/i&gt;&lt;/font&gt;&lt;/div&gt;&lt;div&gt;&lt;font style=&quot;font-size: 7px;&quot;&gt;&lt;i&gt;h) Органам управления;&lt;/i&gt;&lt;/font&gt;&lt;/div&gt;&lt;div&gt;&lt;font style=&quot;font-size: 7px;&quot;&gt;&lt;i&gt;i) Креслу оператора;&lt;/i&gt;&lt;/font&gt;&lt;/div&gt;&lt;div&gt;&lt;font style=&quot;font-size: 7px;&quot;&gt;&lt;i&gt;j) Оборудованию на рабочем месте&lt;/i&gt;&lt;/font&gt;&lt;/div&gt;&lt;div&gt;&lt;font style=&quot;font-size: 7px;&quot;&gt;&lt;i&gt;k) Инструменту&lt;/i&gt;&lt;/font&gt;&lt;/div&gt;&lt;/div&gt;" style="rounded=0;whiteSpace=wrap;html=1;align=left;" vertex="1" parent="1">
          <mxGeometry x="210" y="240" width="200" height="220" as="geometry" />
        </mxCell>
        <mxCell id="oj63fRnpGY89MBhKvZT7-33" style="edgeStyle=orthogonalEdgeStyle;rounded=0;orthogonalLoop=1;jettySize=auto;html=1;endArrow=none;endFill=0;strokeWidth=1;entryX=0.669;entryY=0.995;entryDx=0;entryDy=0;entryPerimeter=0;exitX=0.25;exitY=0;exitDx=0;exitDy=0;" edge="1" parent="1" source="oj63fRnpGY89MBhKvZT7-9" target="oj63fRnpGY89MBhKvZT7-1">
          <mxGeometry relative="1" as="geometry">
            <mxPoint x="203" y="200" as="sourcePoint" />
            <mxPoint x="95" y="140" as="targetPoint" />
            <Array as="points">
              <mxPoint x="225" y="130" />
            </Array>
          </mxGeometry>
        </mxCell>
        <mxCell id="oj63fRnpGY89MBhKvZT7-34" style="edgeStyle=orthogonalEdgeStyle;rounded=0;orthogonalLoop=1;jettySize=auto;html=1;endArrow=none;endFill=0;strokeWidth=1;entryX=0.5;entryY=0;entryDx=0;entryDy=0;exitX=0.5;exitY=1;exitDx=0;exitDy=0;" edge="1" parent="1" source="oj63fRnpGY89MBhKvZT7-9" target="oj63fRnpGY89MBhKvZT7-31">
          <mxGeometry relative="1" as="geometry">
            <mxPoint x="255" y="210" as="sourcePoint" />
            <mxPoint x="254" y="140" as="targetPoint" />
            <Array as="points">
              <mxPoint x="254" y="230" />
              <mxPoint x="254" y="240" />
            </Array>
          </mxGeometry>
        </mxCell>
        <mxCell id="oj63fRnpGY89MBhKvZT7-35" value="&lt;div style=&quot;text-align: justify;&quot;&gt;&lt;div&gt;&lt;span style=&quot;font-size: 7px;&quot;&gt;&lt;i&gt;a) Организации обучения и тренировке оператора (операторов);&lt;/i&gt;&lt;/span&gt;&lt;/div&gt;&lt;div&gt;&lt;span style=&quot;font-size: 7px;&quot;&gt;&lt;i&gt;b) Организации профессионально- психофизического отбора операторов;&lt;/i&gt;&lt;/span&gt;&lt;/div&gt;&lt;div&gt;&lt;span style=&quot;font-size: 7px;&quot;&gt;&lt;i&gt;c) Комплектованию коллектива операторов;&lt;/i&gt;&lt;/span&gt;&lt;/div&gt;&lt;div&gt;&lt;span style=&quot;font-size: 7px;&quot;&gt;&lt;i&gt;d) Режиму труда и отдыха оператора (операторов);&lt;/i&gt;&lt;/span&gt;&lt;/div&gt;&lt;div&gt;&lt;span style=&quot;font-size: 7px;&quot;&gt;&lt;i&gt;e) Аппаратуре обучения и тренировке операторов;&lt;/i&gt;&lt;/span&gt;&lt;/div&gt;&lt;div&gt;&lt;span style=&quot;font-size: 7px;&quot;&gt;&lt;i&gt;f) Аппаратуре контроля функционального состояния&lt;/i&gt;&lt;/span&gt;&lt;/div&gt;&lt;div&gt;&lt;span style=&quot;font-size: 7px;&quot;&gt;&lt;i&gt;операторов;&lt;/i&gt;&lt;/span&gt;&lt;/div&gt;&lt;div&gt;&lt;span style=&quot;font-size: 7px;&quot;&gt;&lt;i&gt;g) Экипировке и специальному снаряжению операторов;&lt;/i&gt;&lt;/span&gt;&lt;/div&gt;&lt;/div&gt;" style="rounded=0;whiteSpace=wrap;html=1;align=left;" vertex="1" parent="1">
          <mxGeometry x="454" y="190" width="200" height="150" as="geometry" />
        </mxCell>
        <mxCell id="oj63fRnpGY89MBhKvZT7-36" style="edgeStyle=orthogonalEdgeStyle;rounded=0;orthogonalLoop=1;jettySize=auto;html=1;endArrow=none;endFill=0;strokeWidth=1;exitX=0;exitY=0.5;exitDx=0;exitDy=0;" edge="1" parent="1" source="oj63fRnpGY89MBhKvZT7-11">
          <mxGeometry relative="1" as="geometry">
            <mxPoint x="235" y="210" as="sourcePoint" />
            <mxPoint x="267" y="130" as="targetPoint" />
            <Array as="points">
              <mxPoint x="320" y="155" />
              <mxPoint x="320" y="130" />
            </Array>
          </mxGeometry>
        </mxCell>
        <mxCell id="oj63fRnpGY89MBhKvZT7-39" style="edgeStyle=orthogonalEdgeStyle;rounded=0;orthogonalLoop=1;jettySize=auto;html=1;entryX=0.402;entryY=0;entryDx=0;entryDy=0;entryPerimeter=0;endArrow=none;endFill=0;" edge="1" parent="1" source="oj63fRnpGY89MBhKvZT7-11" target="oj63fRnpGY89MBhKvZT7-35">
          <mxGeometry relative="1" as="geometry" />
        </mxCell>
        <mxCell id="oj63fRnpGY89MBhKvZT7-40" value="&lt;div style=&quot;text-align: justify;&quot;&gt;&lt;div&gt;&lt;span style=&quot;font-size: 7px;&quot;&gt;&lt;i&gt;a) Форме и объёму помещения;&lt;/i&gt;&lt;/span&gt;&lt;/div&gt;&lt;div&gt;&lt;span style=&quot;font-size: 7px;&quot;&gt;&lt;i&gt;b) Элементам помещения, обеспечивающим вход и выход&lt;/i&gt;&lt;/span&gt;&lt;/div&gt;&lt;div&gt;&lt;span style=&quot;font-size: 7px;&quot;&gt;&lt;i&gt;из него, а также перемещение по нему (двери, люки,&lt;/i&gt;&lt;/span&gt;&lt;/div&gt;&lt;div&gt;&lt;span style=&quot;font-size: 7px;&quot;&gt;&lt;i&gt;трапы, лазы и др.)&lt;/i&gt;&lt;/span&gt;&lt;/div&gt;&lt;/div&gt;" style="rounded=0;whiteSpace=wrap;html=1;align=left;" vertex="1" parent="1">
          <mxGeometry x="454" y="400" width="106" height="90" as="geometry" />
        </mxCell>
        <mxCell id="oj63fRnpGY89MBhKvZT7-46" style="edgeStyle=orthogonalEdgeStyle;rounded=0;orthogonalLoop=1;jettySize=auto;html=1;entryX=0.816;entryY=1;entryDx=0;entryDy=0;entryPerimeter=0;endArrow=none;endFill=0;exitX=0;exitY=0.5;exitDx=0;exitDy=0;" edge="1" parent="1" source="oj63fRnpGY89MBhKvZT7-13" target="oj63fRnpGY89MBhKvZT7-1">
          <mxGeometry relative="1" as="geometry">
            <Array as="points">
              <mxPoint x="420" y="365" />
              <mxPoint x="420" y="180" />
              <mxPoint x="267" y="180" />
            </Array>
          </mxGeometry>
        </mxCell>
        <mxCell id="oj63fRnpGY89MBhKvZT7-47" value="&lt;div style=&quot;text-align: justify;&quot;&gt;&lt;div&gt;&lt;span style=&quot;font-size: 7px;&quot;&gt;&lt;i&gt;Физическим, химическим, биологическим и социально-бытовым:&lt;/i&gt;&lt;/span&gt;&lt;/div&gt;&lt;div&gt;&lt;span style=&quot;font-size: 7px;&quot;&gt;&lt;i&gt;Пример: Уровень шума в помещении не должен превышать 40 дБ, а температура должна поддерживаться в пределах 22-24 °C для комфортной работы операторов.&lt;/i&gt;&lt;/span&gt;&lt;/div&gt;&lt;/div&gt;" style="rounded=0;whiteSpace=wrap;html=1;align=left;" vertex="1" parent="1">
          <mxGeometry x="30" y="520" width="400" height="40" as="geometry" />
        </mxCell>
        <mxCell id="oj63fRnpGY89MBhKvZT7-48" style="edgeStyle=orthogonalEdgeStyle;rounded=0;orthogonalLoop=1;jettySize=auto;html=1;exitX=0.5;exitY=1;exitDx=0;exitDy=0;entryX=0.137;entryY=0.003;entryDx=0;entryDy=0;entryPerimeter=0;endArrow=none;endFill=0;" edge="1" parent="1" source="oj63fRnpGY89MBhKvZT7-15" target="oj63fRnpGY89MBhKvZT7-47">
          <mxGeometry relative="1" as="geometry" />
        </mxCell>
      </root>
    </mxGraphModel>
  </diagram>
</mxfile>
